<svg width="40" height="40" fill="none" viewBox="-3 -3 40 40" xmlns="http://www.w3.org/2000/svg"><path d="M4.045 5.763c.207-.26.427-.512.646-.761.01-.013.033-.015.043-.028.02-.024.052-.04.072-.064l.02-.025c.152-.143.317-.295.504-.43a7.487 7.487 0 012.081-1.14c2.33-.818 4.926-.314 6.962 1.607 2.842 2.665 2.587 6.954.32 9.806-2.868 4.252-7.794 10.184-.974 15.499 1.228.955 2.136 1.744 5.999 2.86-2.528.466-4.869.321-7.476-.345-1.844-1.04-4.744-3.269-5.732-6.28-1.492-4.567 2.625-11.392 4.614-14.02 2.732-3.637-1.69-7.575-4.943-3.178-1.702 2.29-4.676 8.776-3.643 13.584.604 2.727 1.41 4.716 4.606 7.446a15.215 15.215 0 01-1.727-1.19c-7.423-6.917-6.56-17.61-1.372-23.341z" fill="url(#prefix__paint0_linear_2317_6346)"/><path d="M29.317 27.596c-.207.259-.427.511-.646.76-.01.013-.033.015-.043.028-.02.025-.052.04-.072.065l-.02.025a5.143 5.143 0 01-.504.429 7.522 7.522 0 01-2.081 1.14c-2.331.819-4.926.315-6.962-1.607-2.842-2.665-2.588-6.954-.32-9.806 2.867-4.252 7.793-10.183.971-15.498-1.225-.956-2.136-1.744-5.998-2.86 2.527-.466 4.868-.322 7.475.345 1.844 1.04 4.744 3.271 5.732 6.28 1.492 4.567-2.625 11.391-4.614 14.019-2.732 3.638 1.69 7.575 4.943 3.179 1.702-2.291 4.676-8.776 3.643-13.585-.604-2.727-1.41-4.716-4.606-7.445.591.349 1.168.746 1.727 1.19 7.423 6.914 6.562 17.609 1.375 23.34z" fill="url(#prefix__paint1_linear_2317_6346)"/><defs><linearGradient id="prefix__paint0_linear_2317_6346" x1="0" y1="18.149" x2="33.362" y2="18.149" gradientUnits="userSpaceOnUse"><stop stop-color="#0082FA"/><stop offset="1" stop-color="#00F2FE"/></linearGradient><linearGradient id="prefix__paint1_linear_2317_6346" x1="0" y1="15.211" x2="33.362" y2="15.211" gradientUnits="userSpaceOnUse"><stop stop-color="#0082FA"/><stop offset="1" stop-color="#00F2FE"/></linearGradient></defs></svg>